<svg width="45" height="45" viewBox="0 0 45 45" fill="none" xmlns="http://www.w3.org/2000/svg">
<g clip-path="url(#clip0_60_37)">
<path d="M5.625 18.75C5.625 20.4736 5.96449 22.1803 6.62408 23.7727C7.28367 25.3651 8.25045 26.812 9.46922 28.0308C10.688 29.2495 12.1349 30.2163 13.7273 30.8759C15.3197 31.5355 17.0264 31.875 18.75 31.875C20.4736 31.875 22.1803 31.5355 23.7727 30.8759C25.3651 30.2163 26.812 29.2495 28.0308 28.0308C29.2495 26.812 30.2163 25.3651 30.8759 23.7727C31.5355 22.1803 31.875 20.4736 31.875 18.75C31.875 17.0264 31.5355 15.3197 30.8759 13.7273C30.2163 12.1349 29.2495 10.688 28.0308 9.46922C26.812 8.25045 25.3651 7.28367 23.7727 6.62408C22.1803 5.96449 20.4736 5.625 18.75 5.625C17.0264 5.625 15.3197 5.96449 13.7273 6.62408C12.1349 7.28367 10.688 8.25045 9.46922 9.46922C8.25045 10.688 7.28367 12.1349 6.62408 13.7273C5.96449 15.3197 5.625 17.0264 5.625 18.75Z" stroke="black" stroke-width="2" stroke-linecap="round" stroke-linejoin="round"/>
<path d="M39.375 39.375L28.125 28.125" stroke="black" stroke-width="2" stroke-linecap="round" stroke-linejoin="round"/>
</g>
<defs>
<clipPath id="clip0_60_37">
<rect width="45" height="45" fill="white"/>
</clipPath>
</defs>
</svg>
